 


      Complete name : Panic Room 2002 DvDrip_minstrel
      Format : AVI
      Format/Info : Audio Video Interleave
      File size : 650 MiB
      Duration : 1h 47mn
      Overall bit rate : 847 Kbps
   Video #0
      ID : 0
      Format : MPEG-4 Visual
      Format profile : Simple@L3
      Format settings, BVOP : No
      Format settings, QPel : No
      Format settings, GMC : No warppoints
      Format settings, Matrix : Default (H.263)
      Codec ID : XVID
      Codec ID/Hint : XviD
      Duration : 1h 47mn
      Bit rate : 706 Kbps
      Width : 640 pixels
      Height : 360 pixels
      Display aspect ratio : 16:9
      Frame rate : 25.000 fps
      Resolution : 24 bits
      Colorimetry : 4:2:0
      Scan type : Progressive
      Bits/(Pixel*Frame) : 0.123
      Stream size : 542 MiB (83%)
      Writing library : Magic0432
   Audio #1
      ID : 1
      Format : MPEG Audio
      Format version : Version 1
      Format profile : Layer 3
      Codec ID : 55
      Codec ID/Hint : MP3
      Duration : 1h 47mn
      Bit rate mode : Constant
      Bit rate : 128 Kbps
      Channel(s) : 2 channels
      Sampling rate : 44.1 KHz
      Resolution : 16 bits
      Stream size : 98.3 MiB (15%)
      Alignment : Aligned on interleaves
      Interleave, duration : 26 ms (0.65 video frame)
      Writing library : LAME3.97

Cast
 
Jodie Foster	... 	Meg Altman
Kristen Stewart	... 	Sarah Altman
Forest Whitaker	... 	Burnham
Dwight Yoakam	... 	Raoul
Jared Leto	... 	Junior
Patrick Bauchau	... 	Stephen Altman
Ann Magnuson	... 	Lydia Lynch
Ian Buchanan	... 	Evan Kurlander
Andrew Kevin Walker... 	Sleepy Neighbor
Paul Schulze	... 	Officer Keeney
Mel Rodriguez	... 	Officer Morales

David Fincher directs this cleverly conceived thriller about a mother and daughter trapped inside a panic room by three criminals. The film is well-paced and the camera work is slick. The film does well in exploring the confines of the house. Jodie Foster is effective and maintains a high intensity throughout. Kristen Stewart is decent as her daughter. Forest Whitaker plays a slightly sympathetic criminal and does well. Unfortunately, after an engrossing game of cat and mouse, the conclusion is weak. Staple clichés crop up and the film goes for a crowd-pleasing finale that doesn't quite feel right. Still watchable.
